<?xml version="1.0" encoding="utf-8"?>
<!-- Generator: Adobe Illustrator 24.3.0, SVG Export Plug-In . SVG Version: 6.00 Build 0)  -->
<svg version="1.1" id="Layer_1" xmlns="http://www.w3.org/2000/svg" xmlns:xlink="http://www.w3.org/1999/xlink" x="0px" y="0px"
	 viewBox="0 0 572 572" style="enable-background:new 0 0 572 572;" xml:space="preserve">
<style type="text/css">
	.st0{fill:#253A77;}
	.st1{fill:#0B90C1;}
	.st2{fill:#ACDBEE;}
	.st3{fill:#F7941D;}
	.st4{fill:#333366;}
</style>
<g>
	<g>
		<path class="st0" d="M230.14,214.55c-3.72,3.52-7.73,6.76-11.97,9.71l9.44,16.33c1.89,3.28,0.77,7.46-2.51,9.36
			c-1.08,0.62-2.26,0.91-3.42,0.91c-2.37,0-4.68-1.22-5.94-3.43l-9.32-16.12c-12.4,6.35-26.01,10.1-39.97,11.03v18.3
			c0,3.78-3.07,6.85-6.85,6.85s-6.85-3.07-6.85-6.85v-18.3c-13.97-0.93-27.57-4.69-39.98-11.04l-9.31,16.13
			c-1.27,2.2-3.57,3.43-5.95,3.43c-1.16,0-2.34-0.29-3.42-0.91c-3.28-1.89-4.4-6.08-2.51-9.36l9.44-16.34
			c-4.21-2.92-8.22-6.17-11.96-9.7c-2.75-2.59-2.88-6.93-0.27-9.68c2.59-2.75,6.93-2.88,9.68-0.27c4.66,4.4,9.79,8.3,15.25,11.58
			c13.81,8.31,29.68,12.71,45.87,12.71s32.05-4.39,45.85-12.7c5.52-3.32,10.65-7.22,15.26-11.59c2.75-2.59,7.09-2.48,9.69,0.26
			C233,207.61,232.88,211.95,230.14,214.55z"/>
		<path class="st0" d="M59.29,46.65v478.71c0,12.11,9.81,21.92,21.92,21.92h409.58c12.11,0,21.92-9.81,21.92-21.92V366.63
			c0-0.01,0-0.01,0-0.01V46.65c0-12.11-9.81-21.92-21.92-21.92H81.21C69.1,24.72,59.29,34.54,59.29,46.65z M94.91,38.43h118.53
			c-26.5,10.34-51.45,26.43-72.95,47.18c-25.56,24.67-46.44,56.08-60.38,90.84c-2.62,6.53-5,13.14-7.12,19.85V60.35
			C72.99,48.24,82.8,38.43,94.91,38.43z M72.99,511.65V383.16L223.4,533.57H94.91C82.8,533.57,72.99,523.76,72.99,511.65z
			 M477.09,533.57H348.6l150.41-150.41v128.49C499.01,523.76,489.2,533.57,477.09,533.57z M499.01,363.78L329.22,533.57h-13.24
			c1.18-0.99,2.34-2.01,3.45-3.11c24.03-23.61,24.43-64.79,23.98-76.84c-0.1-2.65-1.31-5.14-3.32-6.85
			c-2.02-1.72-4.69-2.5-7.32-2.16c-36.65,4.69-64.16,1.74-81.77-8.75c-7.68-4.59-12.27-9.99-14.99-14.82
			c23.78,10.24,46.34,14.08,67.19,11.45c16.93-2.15,32.89-8.75,46.14-19.1c3.83-2.99,5.04-8.13,2.96-12.51
			c-2.07-4.37-6.82-6.66-11.55-5.58l-0.36,0.08c-2.16,0.48-4.44,0.57-6.78,0.26l-15.75-2.04c-10.79-1.39-21.74,0.7-31.22,5.92
			c0.33-11.19,1.08-21.35,2.22-30.35h24.72c8.16,0,16.04-3.41,21.63-9.35c5.66-6.03,8.5-13.91,8-22.2
			c-0.92-14.96-12.91-26.91-27.88-27.77c-9.02-0.53-17.66,3-23.71,9.66c-0.01,0-0.02,0.01-0.03,0.02l-0.05,0.05
			c-5.83,5.84-9.6,16.36-11.74,24.16c-0.99,3.58-1.87,7.51-2.67,11.72h-6.94V201.68c0-10.4,1.77-20.59,5.27-30.26
			c1.61-4.46,3.59-8.8,5.88-12.92c1.26-2.27,2.63-4.51,4.07-6.64c16.61-24.56,44.22-39.23,73.83-39.23
			c32.34,0,62.19,17.58,77.91,45.89c2.28,4.11,4.27,8.45,5.87,12.91c1.13,3.13,2.29,9.17,3.28,17c1.61,12.81-2.95,25.45-12.21,33.82
			c-0.18,0.17-0.37,0.33-0.55,0.49c-16.11,13.87-36.69,21.5-58.01,21.5h-0.04c-5.06,0-10.13-0.44-15.08-1.32
			c-6.57-1.15-13.01-3.07-19.15-5.69l-0.62-0.27c-13.24-5.76-24.92-14.75-34.05-26.14c3.02-2.23,6.19-4.26,9.46-6.07
			c5.06-2.81,10.4-5.12,15.91-6.88c-1.55,3.59-2.41,7.55-2.41,11.71c0,16.37,13.32,29.69,29.69,29.69c10.55,0,20.94-1.6,30.9-4.74
			l1.05-0.34c11.6-3.77,22.35-9.56,31.96-17.21c2.27-1.81,3.57-4.5,3.57-7.4c0-2.9-1.31-5.59-3.57-7.4c-2.59-2.06-5.32-3.99-8.1-5.8
			l12.2-21.14c1.89-3.28,0.77-7.46-2.51-9.35c-3.28-1.9-7.46-0.78-9.36,2.5l-12.29,21.31c-11.57-5.46-24.16-8.72-36.99-9.57v-24.95
			c0-3.78-3.07-6.85-6.85-6.85c-3.78,0-6.85,3.07-6.85,6.85v24.95c-12.84,0.85-25.42,4.11-36.99,9.56l-12.29-21.3
			c-1.9-3.28-6.08-4.4-9.36-2.5c-3.28,1.89-4.4,6.07-2.5,9.35l12.2,21.14c-3.01,1.95-5.94,4.05-8.72,6.29
			c-3.93,3.19-4.68,8.87-1.7,12.95c11.04,15.12,25.86,26.95,42.86,34.21l1.3,0.55h0.02c6.71,2.76,13.73,4.8,20.86,6.05
			c5.73,1,11.59,1.52,17.49,1.52h0.04c24.55,0,48.31-8.81,66.9-24.82c0.26-0.23,0.54-0.47,0.81-0.72
			c12.57-11.37,18.77-28.45,16.61-45.69c-1.13-9.06-2.48-15.77-3.98-19.95c-1.86-5.14-4.15-10.16-6.79-14.91
			c-18.13-32.65-52.58-52.93-89.89-52.93c-34.17,0-66.01,16.92-85.18,45.25c-1.67,2.47-3.25,5.05-4.7,7.67
			c-2.65,4.76-4.93,9.77-6.79,14.92c-4.05,11.17-6.09,22.92-6.09,34.92v158.05c0,5.2,4.24,9.44,9.44,9.44h9.12
			c-1.34,11.18-2.1,23.93-2.27,38.03c-0.05,3.48,1.83,6.69,4.87,8.37c3.05,1.69,6.77,1.56,9.69-0.33l3.65-2.36
			c7.43-4.8,16.34-6.81,25.12-5.68l15.03,1.94c-9.03,5.13-18.96,8.4-29.66,9.76c-20.91,2.65-44.12-2.25-68.96-14.57
			c-3.28-1.62-7.11-1.23-9.99,1c-2.88,2.24-4.19,5.85-3.43,9.43c1.65,7.72,7.08,22.25,24.9,32.87
			c19.49,11.62,48.35,15.36,85.81,11.14c-0.02,5.99-0.45,15.42-2.47,25.52c-3.16,15.86-9.05,28.11-17.5,36.41
			c-9.55,9.37-22.63,13.66-38.9,12.76c-0.58-0.04-1.13,0.02-1.67,0.12h-26.48L72.99,363.78V286c0-36.51,6.68-71.65,19.84-104.46
			c13.23-32.97,33-62.73,57.18-86.08c24.31-23.47,53.28-40.59,83.76-49.52c16.99-4.99,34.56-7.51,52.24-7.51
			c17.67,0,35.24,2.52,52.23,7.51c30.48,8.93,59.44,26.06,83.76,49.52c24.18,23.35,43.95,53.11,57.18,86.08
			c13.16,32.81,19.84,67.95,19.84,104.46V363.78z M291.09,355.46c0.59-2.88,1.23-5.58,1.92-8.09c3.49-12.7,7.21-17.1,8.27-18.15
			c0.14-0.13,0.3-0.3,0.49-0.52c3.26-3.57,7.92-5.45,12.77-5.18c7.92,0.46,14.5,7.02,14.99,14.93c0.28,4.48-1.25,8.72-4.3,11.97
			c-3.05,3.25-7.19,5.04-11.65,5.04H291.09z M343.27,209.57c0-8.81,7.17-15.98,15.98-15.98c8.81,0,15.98,7.17,15.98,15.98
			c0,8.81-7.17,15.98-15.98,15.98C350.44,225.56,343.27,218.39,343.27,209.57z M386.53,197.86c5.52,1.76,10.85,4.06,15.92,6.89
			c2.65,1.47,5.23,3.09,7.73,4.82c-6.91,4.83-14.4,8.61-22.37,11.3l-0.87,0.28c-0.14,0.05-0.27,0.08-0.41,0.13
			c1.55-3.59,2.41-7.55,2.41-11.71C388.94,205.41,388.08,201.45,386.53,197.86z M499.01,196.29c-2.13-6.7-4.5-13.32-7.12-19.85
			c-13.94-34.76-34.82-66.17-60.39-90.84c-21.49-20.74-46.45-36.84-72.94-47.18h118.53c12.11,0,21.92,9.81,21.92,21.92V196.29z"/>
	</g>
	<circle class="st1" cx="359.25" cy="209.57" r="15.98"/>
	<g>
		<path class="st2" d="M410.17,209.57c-6.91,4.83-14.4,8.61-22.37,11.3l-0.87,0.28c-0.14,0.05-0.27,0.08-0.41,0.13
			c1.55-3.59,2.41-7.55,2.41-11.71c0-4.16-0.86-8.12-2.41-11.71c5.52,1.76,10.85,4.06,15.92,6.89
			C405.09,206.22,407.68,207.84,410.17,209.57z"/>
		<path class="st2" d="M325.23,350.42c-3.05,3.25-7.19,5.04-11.65,5.04h-22.49c0.59-2.88,1.23-5.58,1.92-8.09
			c3.49-12.7,7.21-17.1,8.27-18.15c0.14-0.13,0.3-0.3,0.49-0.52c3.26-3.57,7.92-5.45,12.77-5.18c7.92,0.46,14.5,7.02,14.99,14.93
			C329.81,342.93,328.28,347.18,325.23,350.42z"/>
		<path class="st2" d="M479.17,181.54c-13.23-32.97-33-62.73-57.18-86.08c-24.31-23.47-53.28-40.59-83.76-49.52
			c-16.99-4.99-34.56-7.51-52.23-7.51c-17.67,0-35.25,2.52-52.24,7.51c-30.48,8.93-59.44,26.06-83.76,49.52
			c-24.18,23.35-43.95,53.11-57.18,86.08C79.67,214.35,72.99,249.49,72.99,286v77.79l169.79,169.79h26.48
			c0.54-0.1,1.1-0.16,1.67-0.12c16.27,0.9,29.36-3.39,38.9-12.76c8.45-8.3,14.34-20.55,17.5-36.41c2.02-10.1,2.45-19.53,2.47-25.52
			c-37.47,4.22-66.32,0.48-85.81-11.14c-17.82-10.62-23.25-25.16-24.9-32.87c-0.76-3.57,0.56-7.19,3.43-9.43
			c2.89-2.24,6.71-2.62,9.99-1c24.84,12.32,48.05,17.22,68.96,14.57c10.7-1.36,20.62-4.63,29.66-9.76l-15.03-1.94
			c-8.78-1.13-17.69,0.89-25.12,5.68l-3.65,2.36c-2.92,1.89-6.64,2.02-9.69,0.33c-3.04-1.68-4.91-4.89-4.87-8.37
			c0.17-14.09,0.93-26.85,2.27-38.03h-9.12c-5.2,0-9.44-4.24-9.44-9.44V201.68c0-12,2.05-23.75,6.09-34.92
			c1.85-5.14,4.14-10.16,6.79-14.92c1.45-2.62,3.03-5.21,4.7-7.67c19.16-28.33,51-45.25,85.18-45.25
			c37.31,0,71.76,20.28,89.89,52.93c2.64,4.75,4.92,9.76,6.79,14.91c1.51,4.17,2.85,10.89,3.98,19.95
			c2.16,17.24-4.04,34.32-16.61,45.69c-0.27,0.25-0.55,0.49-0.81,0.72c-18.59,16-42.35,24.82-66.9,24.82h-0.04
			c-5.9,0-11.76-0.51-17.49-1.52c-7.13-1.25-14.15-3.29-20.86-6.05h-0.02l-1.3-0.55c-17-7.26-31.81-19.09-42.86-34.21
			c-2.98-4.08-2.23-9.76,1.7-12.95c2.79-2.25,5.71-4.34,8.72-6.29l-12.2-21.14c-1.9-3.28-0.78-7.46,2.5-9.35
			c3.28-1.9,7.46-0.78,9.36,2.5l12.29,21.3c11.57-5.45,24.15-8.71,36.99-9.56v-24.95c0-3.78,3.07-6.85,6.85-6.85
			c3.78,0,6.85,3.07,6.85,6.85v24.95c12.83,0.85,25.42,4.11,36.99,9.57l12.29-21.31c1.9-3.28,6.08-4.4,9.36-2.5
			c3.28,1.89,4.4,6.07,2.51,9.35l-12.2,21.14c2.79,1.81,5.51,3.74,8.1,5.8c2.27,1.81,3.57,4.5,3.57,7.4c0,2.9-1.31,5.59-3.57,7.4
			c-9.61,7.65-20.36,13.44-31.96,17.21l-1.05,0.34c-9.97,3.14-20.35,4.74-30.9,4.74c-16.37,0-29.69-13.32-29.69-29.69
			c0-4.16,0.86-8.12,2.41-11.71c-5.51,1.76-10.85,4.06-15.91,6.88c-3.27,1.82-6.44,3.85-9.46,6.07
			c9.13,11.39,20.82,20.38,34.05,26.14l0.62,0.27c6.15,2.62,12.59,4.54,19.15,5.69c4.95,0.88,10.02,1.32,15.08,1.32h0.04
			c21.32,0,41.9-7.64,58.01-21.5c0.18-0.16,0.37-0.32,0.55-0.49c9.26-8.38,13.82-21.02,12.21-33.82c-0.99-7.83-2.15-13.87-3.28-17
			c-1.61-4.46-3.59-8.8-5.87-12.91c-15.72-28.31-45.57-45.89-77.91-45.89c-29.61,0-57.22,14.67-73.83,39.23
			c-1.44,2.13-2.81,4.37-4.07,6.64c-2.29,4.13-4.27,8.47-5.88,12.92c-3.5,9.67-5.27,19.86-5.27,30.26v153.78h6.94
			c0.79-4.21,1.68-8.14,2.67-11.72c2.14-7.8,5.91-18.32,11.74-24.16l0.05-0.05c0.01-0.01,0.02-0.02,0.03-0.02
			c6.06-6.67,14.69-10.19,23.71-9.66c14.97,0.86,26.95,12.81,27.88,27.77c0.5,8.28-2.34,16.17-8,22.2
			c-5.59,5.95-13.47,9.35-21.63,9.35h-24.72c-1.14,9.01-1.89,19.16-2.22,30.35c9.48-5.22,20.43-7.31,31.22-5.92l15.75,2.04
			c2.34,0.3,4.61,0.21,6.78-0.26l0.36-0.08c4.73-1.08,9.48,1.21,11.55,5.58c2.08,4.38,0.87,9.53-2.96,12.51
			c-13.24,10.35-29.2,16.95-46.14,19.1c-20.85,2.64-43.41-1.21-67.19-11.45c2.72,4.83,7.31,10.24,14.99,14.82
			c17.61,10.5,45.12,13.44,81.77,8.75c2.63-0.34,5.3,0.45,7.32,2.16c2.02,1.71,3.22,4.2,3.32,6.85
			c0.46,12.06,0.05,53.23-23.98,76.84c-1.11,1.1-2.27,2.12-3.45,3.11h13.24l169.79-169.79V286
			C499.01,249.49,492.33,214.35,479.17,181.54z M230.14,214.55c-3.72,3.52-7.73,6.76-11.97,9.71l9.44,16.33
			c1.89,3.28,0.77,7.46-2.51,9.36c-1.08,0.62-2.26,0.91-3.42,0.91c-2.37,0-4.68-1.22-5.94-3.43l-9.32-16.12
			c-12.4,6.35-26.01,10.1-39.97,11.03v18.3c0,3.78-3.07,6.85-6.85,6.85s-6.85-3.07-6.85-6.85v-18.3
			c-13.97-0.93-27.57-4.69-39.98-11.04l-9.31,16.13c-1.27,2.2-3.57,3.43-5.95,3.43c-1.16,0-2.34-0.29-3.42-0.91
			c-3.28-1.89-4.4-6.08-2.51-9.36l9.44-16.34c-4.21-2.92-8.22-6.17-11.96-9.7c-2.75-2.59-2.88-6.93-0.27-9.68
			c2.59-2.75,6.93-2.88,9.68-0.27c4.66,4.4,9.79,8.3,15.25,11.58c13.81,8.31,29.68,12.71,45.87,12.71s32.05-4.39,45.85-12.7
			c5.52-3.32,10.65-7.22,15.26-11.59c2.75-2.59,7.09-2.48,9.69,0.26C233,207.61,232.88,211.95,230.14,214.55z"/>
	</g>
	<g>
		<path class="st3" d="M499.01,383.16v128.49c0,12.11-9.81,21.92-21.92,21.92H348.6L499.01,383.16z"/>
		<path class="st3" d="M223.4,533.57H94.91c-12.11,0-21.92-9.81-21.92-21.92V383.16L223.4,533.57z"/>
		<path class="st3" d="M213.44,38.43c-26.5,10.34-51.45,26.43-72.95,47.18c-25.56,24.67-46.44,56.08-60.38,90.84
			c-2.62,6.53-5,13.14-7.12,19.85V60.35c0-12.11,9.81-21.92,21.92-21.92H213.44z"/>
		<path class="st3" d="M499.01,60.35v135.94c-2.13-6.7-4.5-13.32-7.12-19.85c-13.94-34.76-34.82-66.17-60.39-90.84
			c-21.49-20.74-46.45-36.84-72.94-47.18h118.53C489.2,38.43,499.01,48.24,499.01,60.35z"/>
	</g>
	<path class="st4" d="M315.84,393.38c0,0,18.14,2.12,27.98,1.68l1.4,6.55l-15.66-0.97L315.84,393.38z"/>
</g>
</svg>
